<svg width="160" height="160" viewBox="0 0 160 160" fill="none" xmlns="http://www.w3.org/2000/svg">
<path d="M126.667 29.74C126.591 28.8589 126.171 28.0432 125.499 27.4684C124.827 26.8935 123.956 26.6056 123.074 26.6666C122.636 26.6995 122.209 26.8186 121.817 27.0173C121.425 27.2159 121.076 27.4901 120.79 27.824C120.504 28.158 120.288 28.5451 120.152 28.9632C120.017 29.3812 119.965 29.822 120.001 30.26L123.914 80.1733C115.026 80.841 106.506 83.9986 99.3286 89.2842C92.1518 94.5699 86.6087 101.77 83.3341 110.06C80.0586 101.768 74.5135 94.5667 67.334 89.2808C60.1546 83.995 51.6313 80.8386 42.7408 80.1733L46.6675 30.26C46.7364 29.3759 46.4514 28.5007 45.875 27.8268C45.2986 27.1529 44.4782 26.7356 43.5941 26.6666C42.7101 26.5977 41.8348 26.8827 41.161 27.4591C40.4871 28.0355 40.0698 28.8559 40.0008 29.74L35.9008 82.0533C29.9288 88.4789 26.6344 96.9415 26.6901 105.714C26.7459 114.486 30.1475 122.906 36.2006 129.255C42.2537 135.604 50.5019 139.404 59.2613 139.878C68.0208 140.352 76.6309 137.465 83.3341 131.807C90.0374 137.461 98.646 140.345 107.403 139.868C116.16 139.392 124.405 135.592 130.455 129.243C136.505 122.894 139.904 114.476 139.959 105.706C140.013 96.9364 136.718 88.4765 130.747 82.0533L126.667 29.74ZM41.5075 125.16C36.4341 120.094 33.5056 113.27 33.3293 106.103C33.1531 98.9356 35.7426 91.9756 40.5608 86.6666C50.9157 87.0017 60.7549 91.2654 68.0802 98.5919C75.4054 105.918 79.6675 115.758 80.0008 126.113C74.691 130.931 67.7305 133.519 60.5633 133.341C53.3961 133.164 46.5723 130.234 41.5075 125.16ZM125.154 125.16C120.086 130.218 113.268 133.137 106.11 133.313C98.9514 133.489 91.9986 130.909 86.6875 126.107C87.0222 115.756 91.2822 105.921 98.603 98.5961C105.924 91.2716 115.757 87.0066 126.107 86.6666C130.926 91.9757 133.516 98.9365 133.338 106.104C133.161 113.272 130.23 120.096 125.154 125.16Z" fill="#393D46"/>
</svg>
